<svg xmlns="http://www.w3.org/2000/svg" xmlns:xlink="http://www.w3.org/1999/xlink" width="2000" zoomAndPan="magnify" viewBox="0 0 1500 1499.999933" height="2000" preserveAspectRatio="xMidYMid meet" version="1.0"><defs><g/><clipPath id="7c7a8d1799"><path d="M 275.675781 953 L 346 953 L 346 1057 L 275.675781 1057 Z M 275.675781 953 " clip-rule="nonzero"/></clipPath><clipPath id="12eb7832f8"><path d="M 275.675781 843 L 346 843 L 346 973 L 275.675781 973 Z M 275.675781 843 " clip-rule="nonzero"/></clipPath><clipPath id="4d000bcc5b"><path d="M 1154 953 L 1224.425781 953 L 1224.425781 1057 L 1154 1057 Z M 1154 953 " clip-rule="nonzero"/></clipPath><clipPath id="4f11998e26"><path d="M 1154 843 L 1224.425781 843 L 1224.425781 973 L 1154 973 Z M 1154 843 " clip-rule="nonzero"/></clipPath><clipPath id="3362066bb7"><rect x="0" width="1107" y="0" height="320"/></clipPath></defs><rect x="-150" width="1800" fill="#ffffff" y="-149.999993" height="1799.99992" fill-opacity="1"/><rect x="-150" width="1800" fill="#000000" y="-149.999993" height="1799.99992" fill-opacity="1"/><path fill="#ffffff" d="M 966.96875 858.324219 L 966.96875 1056.867188 L 765.703125 1056.867188 L 765.703125 755.847656 Z M 966.96875 858.324219 " fill-opacity="1" fill-rule="evenodd"/><path fill="#ffffff" d="M 765.703125 443.132812 L 966.96875 555.542969 L 966.96875 824.113281 L 765.703125 707.695312 Z M 765.703125 443.132812 " fill-opacity="1" fill-rule="evenodd"/><path fill="#ffffff" d="M 533.027344 858.324219 L 533.027344 1056.867188 L 734.292969 1056.867188 L 734.292969 755.847656 Z M 533.027344 858.324219 " fill-opacity="1" fill-rule="evenodd"/><path fill="#ffffff" d="M 734.292969 443.132812 L 533.027344 555.542969 L 533.027344 824.113281 L 734.292969 707.695312 Z M 734.292969 443.132812 " fill-opacity="1" fill-rule="evenodd"/><path fill="#ffffff" d="M 372.140625 940.210938 L 372.140625 1056.867188 L 498.414062 1056.867188 L 498.414062 875.953125 Z M 372.140625 940.210938 " fill-opacity="1" fill-rule="evenodd"/><path fill="#ffffff" d="M 498.414062 671.960938 L 372.140625 742.386719 L 372.140625 917.054688 L 498.414062 844.0625 Z M 498.414062 671.960938 " fill-opacity="1" fill-rule="evenodd"/><path fill="#ffffff" d="M 1127.292969 940.210938 L 1127.292969 1056.867188 L 1001.019531 1056.867188 L 1001.019531 875.953125 Z M 1127.292969 940.210938 " fill-opacity="1" fill-rule="evenodd"/><path fill="#ffffff" d="M 1001.019531 671.960938 L 1127.292969 742.386719 L 1127.292969 917.054688 L 1001.019531 844.0625 Z M 1001.019531 671.960938 " fill-opacity="1" fill-rule="evenodd"/><g clip-path="url(#7c7a8d1799)"><path fill="#ffffff" d="M 275.675781 989.324219 L 275.675781 1056.867188 L 345.78125 1056.867188 L 345.78125 953.671875 Z M 275.675781 989.324219 " fill-opacity="1" fill-rule="evenodd"/></g><g clip-path="url(#12eb7832f8)"><path fill="#ffffff" d="M 345.78125 843.183594 L 275.675781 882.28125 L 275.675781 972.820312 L 345.78125 932.277344 Z M 345.78125 843.183594 " fill-opacity="1" fill-rule="evenodd"/></g><g clip-path="url(#4d000bcc5b)"><path fill="#ffffff" d="M 1224.320312 989.324219 L 1224.320312 1056.867188 L 1154.214844 1056.867188 L 1154.214844 953.671875 Z M 1224.320312 989.324219 " fill-opacity="1" fill-rule="evenodd"/></g><g clip-path="url(#4f11998e26)"><path fill="#ffffff" d="M 1154.214844 843.183594 L 1224.320312 882.28125 L 1224.320312 972.820312 L 1154.214844 932.277344 Z M 1154.214844 843.183594 " fill-opacity="1" fill-rule="evenodd"/></g><g transform="matrix(1, 0, 0, 1, 207, 1108)"><g clip-path="url(#3362066bb7)"><g fill="#000000" fill-opacity="1"><g transform="translate(5.253305, 238.263011)"><g><path d="M 70.53125 1.5625 C 59.070312 1.5625 48.800781 -0.296875 39.71875 -4.015625 C 30.644531 -7.734375 23.390625 -13.238281 17.953125 -20.53125 C 12.523438 -27.820312 9.664062 -36.601562 9.375 -46.875 L 50 -46.875 C 50.59375 -41.070312 52.597656 -36.644531 56.015625 -33.59375 C 59.441406 -30.539062 63.90625 -29.015625 69.40625 -29.015625 C 75.0625 -29.015625 79.523438 -30.316406 82.796875 -32.921875 C 86.078125 -35.523438 87.71875 -39.132812 87.71875 -43.75 C 87.71875 -47.613281 86.414062 -50.8125 83.8125 -53.34375 C 81.207031 -55.875 78.003906 -57.957031 74.203125 -59.59375 C 70.410156 -61.226562 65.019531 -63.085938 58.03125 -65.171875 C 47.914062 -68.296875 39.65625 -71.421875 33.25 -74.546875 C 26.851562 -77.671875 21.347656 -82.28125 16.734375 -88.375 C 12.117188 -94.476562 9.8125 -102.441406 9.8125 -112.265625 C 9.8125 -126.847656 15.09375 -138.265625 25.65625 -146.515625 C 36.226562 -154.773438 49.992188 -158.90625 66.953125 -158.90625 C 84.210938 -158.90625 98.125 -154.773438 108.6875 -146.515625 C 119.25 -138.265625 124.90625 -126.773438 125.65625 -112.046875 L 84.359375 -112.046875 C 84.066406 -117.097656 82.207031 -121.070312 78.78125 -123.96875 C 75.363281 -126.875 70.972656 -128.328125 65.609375 -128.328125 C 61.003906 -128.328125 57.285156 -127.097656 54.453125 -124.640625 C 51.628906 -122.191406 50.21875 -118.660156 50.21875 -114.046875 C 50.21875 -108.984375 52.597656 -105.039062 57.359375 -102.21875 C 62.117188 -99.394531 69.554688 -96.34375 79.671875 -93.0625 C 89.796875 -89.644531 98.019531 -86.375 104.34375 -83.25 C 110.664062 -80.125 116.128906 -75.582031 120.734375 -69.625 C 125.347656 -63.675781 127.65625 -56.015625 127.65625 -46.640625 C 127.65625 -37.710938 125.382812 -29.601562 120.84375 -22.3125 C 116.3125 -15.019531 109.726562 -9.21875 101.09375 -4.90625 C 92.46875 -0.59375 82.28125 1.5625 70.53125 1.5625 Z M 70.53125 1.5625 "/></g></g></g><g fill="#000000" fill-opacity="1"><g transform="translate(165.473789, 238.263011)"><g><path d="M 149.53125 -156.671875 L 149.53125 0 L 111.375 0 L 111.375 -64.5 L 52 -64.5 L 52 0 L 13.84375 0 L 13.84375 -156.671875 L 52 -156.671875 L 52 -95.296875 L 111.375 -95.296875 L 111.375 -156.671875 Z M 149.53125 -156.671875 "/></g></g></g><g fill="#000000" fill-opacity="1"><g transform="translate(351.577364, 238.263011)"><g><path d="M 87.9375 1.5625 C 73.207031 1.5625 59.703125 -1.859375 47.421875 -8.703125 C 35.148438 -15.546875 25.40625 -25.101562 18.1875 -37.375 C 10.96875 -49.65625 7.359375 -63.457031 7.359375 -78.78125 C 7.359375 -94.113281 10.96875 -107.878906 18.1875 -120.078125 C 25.40625 -132.273438 35.148438 -141.796875 47.421875 -148.640625 C 59.703125 -155.484375 73.207031 -158.90625 87.9375 -158.90625 C 102.664062 -158.90625 116.164062 -155.484375 128.4375 -148.640625 C 140.71875 -141.796875 150.390625 -132.273438 157.453125 -120.078125 C 164.523438 -107.878906 168.0625 -94.113281 168.0625 -78.78125 C 168.0625 -63.457031 164.488281 -49.65625 157.34375 -37.375 C 150.207031 -25.101562 140.535156 -15.546875 128.328125 -8.703125 C 116.128906 -1.859375 102.664062 1.5625 87.9375 1.5625 Z M 87.9375 -33.25 C 100.4375 -33.25 110.441406 -37.414062 117.953125 -45.75 C 125.460938 -54.082031 129.21875 -65.09375 129.21875 -78.78125 C 129.21875 -92.625 125.460938 -103.671875 117.953125 -111.921875 C 110.441406 -120.179688 100.4375 -124.3125 87.9375 -124.3125 C 75.289062 -124.3125 65.207031 -120.21875 57.6875 -112.03125 C 50.175781 -103.851562 46.421875 -92.769531 46.421875 -78.78125 C 46.421875 -64.945312 50.175781 -53.898438 57.6875 -45.640625 C 65.207031 -37.378906 75.289062 -33.25 87.9375 -33.25 Z M 87.9375 -33.25 "/></g></g></g><g fill="#000000" fill-opacity="1"><g transform="translate(549.95304, 238.263011)"><g><path d="M 133.25 -106.234375 C 133.25 -97.160156 131.164062 -88.863281 127 -81.34375 C 122.832031 -73.832031 116.429688 -67.769531 107.796875 -63.15625 C 99.171875 -58.550781 88.457031 -56.25 75.65625 -56.25 L 52 -56.25 L 52 0 L 13.84375 0 L 13.84375 -156.671875 L 75.65625 -156.671875 C 88.15625 -156.671875 98.71875 -154.515625 107.34375 -150.203125 C 115.976562 -145.890625 122.453125 -139.9375 126.765625 -132.34375 C 131.085938 -124.757812 133.25 -116.054688 133.25 -106.234375 Z M 72.765625 -86.59375 C 80.046875 -86.59375 85.472656 -88.300781 89.046875 -91.71875 C 92.617188 -95.144531 94.40625 -99.984375 94.40625 -106.234375 C 94.40625 -112.484375 92.617188 -117.316406 89.046875 -120.734375 C 85.472656 -124.160156 80.046875 -125.875 72.765625 -125.875 L 52 -125.875 L 52 -86.59375 Z M 72.765625 -86.59375 "/></g></g></g><g fill="#000000" fill-opacity="1"><g transform="translate(712.181628, 238.263011)"><g><path d="M 7.359375 -78.5625 C 7.359375 -94.039062 10.707031 -107.84375 17.40625 -119.96875 C 24.101562 -132.09375 33.441406 -141.539062 45.421875 -148.3125 C 57.398438 -155.082031 70.976562 -158.46875 86.15625 -158.46875 C 104.75 -158.46875 120.664062 -153.554688 133.90625 -143.734375 C 147.15625 -133.910156 156.007812 -120.519531 160.46875 -103.5625 L 118.515625 -103.5625 C 115.390625 -110.101562 110.960938 -115.082031 105.234375 -118.5 C 99.503906 -121.925781 92.992188 -123.640625 85.703125 -123.640625 C 73.953125 -123.640625 64.429688 -119.546875 57.140625 -111.359375 C 49.847656 -103.179688 46.203125 -92.25 46.203125 -78.5625 C 46.203125 -64.875 49.847656 -53.9375 57.140625 -45.75 C 64.429688 -37.570312 73.953125 -33.484375 85.703125 -33.484375 C 92.992188 -33.484375 99.503906 -35.191406 105.234375 -38.609375 C 110.960938 -42.035156 115.390625 -47.019531 118.515625 -53.5625 L 160.46875 -53.5625 C 156.007812 -36.601562 147.15625 -23.25 133.90625 -13.5 C 120.664062 -3.757812 104.75 1.109375 86.15625 1.109375 C 70.976562 1.109375 57.398438 -2.269531 45.421875 -9.03125 C 33.441406 -15.800781 24.101562 -25.210938 17.40625 -37.265625 C 10.707031 -49.316406 7.359375 -63.082031 7.359375 -78.5625 Z M 7.359375 -78.5625 "/></g></g></g><g fill="#000000" fill-opacity="1"><g transform="translate(905.202201, 238.263011)"><g><path d="M 87.9375 1.5625 C 73.207031 1.5625 59.703125 -1.859375 47.421875 -8.703125 C 35.148438 -15.546875 25.40625 -25.101562 18.1875 -37.375 C 10.96875 -49.65625 7.359375 -63.457031 7.359375 -78.78125 C 7.359375 -94.113281 10.96875 -107.878906 18.1875 -120.078125 C 25.40625 -132.273438 35.148438 -141.796875 47.421875 -148.640625 C 59.703125 -155.484375 73.207031 -158.90625 87.9375 -158.90625 C 102.664062 -158.90625 116.164062 -155.484375 128.4375 -148.640625 C 140.71875 -141.796875 150.390625 -132.273438 157.453125 -120.078125 C 164.523438 -107.878906 168.0625 -94.113281 168.0625 -78.78125 C 168.0625 -63.457031 164.488281 -49.65625 157.34375 -37.375 C 150.207031 -25.101562 140.535156 -15.546875 128.328125 -8.703125 C 116.128906 -1.859375 102.664062 1.5625 87.9375 1.5625 Z M 87.9375 -33.25 C 100.4375 -33.25 110.441406 -37.414062 117.953125 -45.75 C 125.460938 -54.082031 129.21875 -65.09375 129.21875 -78.78125 C 129.21875 -92.625 125.460938 -103.671875 117.953125 -111.921875 C 110.441406 -120.179688 100.4375 -124.3125 87.9375 -124.3125 C 75.289062 -124.3125 65.207031 -120.21875 57.6875 -112.03125 C 50.175781 -103.851562 46.421875 -92.769531 46.421875 -78.78125 C 46.421875 -64.945312 50.175781 -53.898438 57.6875 -45.640625 C 65.207031 -37.378906 75.289062 -33.25 87.9375 -33.25 Z M 87.9375 -33.25 "/></g></g></g></g></g></svg>